<?xml version="1.0" encoding="UTF-8"?>
<svg xmlns="http://www.w3.org/2000/svg" xmlns:xlink="http://www.w3.org/1999/xlink" width="20px" height="px" viewBox="0 0 20 20" version="1.1">
<g id="surface1">
<path style=" stroke:none;fill-rule:nonzero;fill:rgb(0%,0%,0%);fill-opacity:1;" d="M 10.035156 20 L 9.863281 20 C 8.726562 19.984375 7.597656 19.777344 6.53125 19.382812 C 6.386719 19.328125 6.246094 19.273438 6.109375 19.214844 C 6.015625 19.175781 5.925781 19.136719 5.835938 19.09375 L 5.824219 19.089844 L 5.792969 19.074219 C 4.890625 18.65625 4.054688 18.101562 3.3125 17.4375 L 3.28125 17.40625 C 3.160156 17.296875 3.046875 17.1875 2.929688 17.074219 C 2.8125 16.953125 2.695312 16.832031 2.582031 16.707031 C 1.914062 15.96875 1.363281 15.136719 0.941406 14.238281 C 0.886719 14.125 0.835938 14.011719 0.789062 13.894531 C 0.75 13.808594 0.714844 13.71875 0.679688 13.628906 C 0.671875 13.605469 0.667969 13.59375 0.664062 13.582031 C 0.292969 12.613281 0.0742188 11.589844 0.0195312 10.554688 C 0.0195312 10.550781 0.0195312 10.546875 0.0195312 10.546875 L 0.0195312 10.519531 C 0.0195312 10.503906 0.0195312 10.488281 0.015625 10.472656 L 0.015625 10.46875 C 0.0117188 10.410156 0.0117188 10.355469 0.0078125 10.296875 C 0.00390625 10.199219 0 10.097656 0 10 C 0 8.777344 0.222656 7.566406 0.660156 6.421875 C 0.664062 6.40625 0.667969 6.398438 0.671875 6.390625 C 0.675781 6.382812 0.679688 6.367188 0.683594 6.355469 L 0.691406 6.34375 C 0.722656 6.261719 0.753906 6.1875 0.785156 6.109375 C 0.800781 6.074219 0.816406 6.039062 0.832031 6.003906 L 0.839844 5.980469 L 0.847656 5.960938 C 1.289062 4.964844 1.890625 4.050781 2.625 3.246094 L 2.644531 3.222656 L 2.652344 3.21875 C 2.742188 3.121094 2.832031 3.023438 2.929688 2.929688 C 3.042969 2.816406 3.15625 2.707031 3.273438 2.601562 L 3.296875 2.578125 L 3.296875 2.574219 C 4.042969 1.902344 4.882812 1.347656 5.792969 0.925781 L 5.820312 0.910156 L 5.835938 0.90625 C 5.925781 0.863281 6.015625 0.824219 6.105469 0.785156 C 6.214844 0.742188 6.320312 0.699219 6.425781 0.65625 C 7.53125 0.234375 8.703125 0.0117188 9.890625 0 L 10.109375 0 C 11.386719 0.0117188 12.648438 0.269531 13.824219 0.757812 L 13.847656 0.765625 L 13.855469 0.769531 L 13.894531 0.785156 L 14 0.832031 L 14.007812 0.835938 L 14.046875 0.851562 L 14.074219 0.863281 L 14.09375 0.871094 C 15.0625 1.308594 15.957031 1.898438 16.742188 2.617188 L 16.746094 2.621094 L 16.769531 2.640625 C 16.871094 2.734375 16.96875 2.828125 17.070312 2.929688 C 17.171875 3.027344 17.253906 3.113281 17.34375 3.210938 C 18.089844 4.019531 18.699219 4.949219 19.148438 5.957031 L 19.160156 5.980469 C 19.160156 5.988281 19.164062 5.996094 19.167969 6 C 19.175781 6.015625 19.179688 6.03125 19.1875 6.046875 C 19.195312 6.066406 19.203125 6.085938 19.210938 6.105469 L 19.230469 6.148438 L 19.234375 6.15625 L 19.25 6.191406 L 19.257812 6.214844 C 20.230469 8.613281 20.242188 11.289062 19.292969 13.691406 C 19.289062 13.699219 19.285156 13.710938 19.28125 13.722656 C 19.28125 13.726562 19.277344 13.730469 19.273438 13.734375 C 19.253906 13.785156 19.230469 13.835938 19.210938 13.890625 C 19.160156 14.007812 19.109375 14.125 19.054688 14.238281 C 19.054688 14.242188 19.050781 14.246094 19.050781 14.246094 C 19.046875 14.257812 19.039062 14.269531 19.035156 14.28125 C 18.613281 15.167969 18.0625 15.992188 17.398438 16.71875 C 17.292969 16.839844 17.183594 16.953125 17.066406 17.066406 C 16.96875 17.167969 16.863281 17.269531 16.761719 17.363281 L 16.757812 17.363281 L 16.726562 17.390625 C 15.945312 18.105469 15.054688 18.6875 14.089844 19.121094 L 14.070312 19.132812 L 14.046875 19.140625 L 14 19.164062 C 13.964844 19.179688 13.925781 19.195312 13.890625 19.210938 L 13.851562 19.226562 C 12.671875 19.71875 11.410156 19.984375 10.136719 20 Z M 7.296875 18.375 C 9.054688 18.941406 10.945312 18.941406 12.703125 18.375 L 13.554688 15.660156 L 11.792969 13.199219 L 8.207031 13.199219 L 6.445312 15.664062 Z M 13.667969 18 C 14.695312 17.527344 15.625 16.859375 16.398438 16.035156 L 14.292969 16.003906 Z M 3.601562 16.03125 C 4.375 16.855469 5.304688 17.523438 6.332031 18 L 5.707031 16 Z M 17.058594 15.25 C 18.191406 13.734375 18.800781 11.890625 18.800781 10 C 18.800781 9.953125 18.800781 9.90625 18.800781 9.859375 L 16.261719 8.117188 L 13.527344 9.484375 L 12.445312 12.734375 L 14.210938 15.207031 Z M 1.199219 9.863281 C 1.199219 9.90625 1.199219 9.953125 1.199219 10 C 1.199219 11.890625 1.808594 13.730469 2.9375 15.246094 L 5.792969 15.203125 L 7.554688 12.734375 L 6.472656 9.484375 L 3.742188 8.121094 Z M 7.269531 9.347656 L 8.289062 12.398438 L 11.710938 12.398438 L 12.730469 9.347656 L 10 7.300781 Z M 1.277344 8.84375 L 3.117188 7.582031 L 2.40625 5.554688 C 1.8125 6.566406 1.429688 7.683594 1.277344 8.84375 Z M 16.882812 7.578125 L 18.722656 8.84375 C 18.570312 7.683594 18.1875 6.566406 17.59375 5.554688 Z M 6.757812 8.730469 L 9.601562 6.601562 L 9.601562 3.398438 L 7.253906 1.640625 C 5.542969 2.207031 4.050781 3.277344 2.96875 4.714844 L 3.871094 7.289062 Z M 13.242188 8.730469 L 16.132812 7.285156 L 17.03125 4.714844 C 15.949219 3.277344 14.457031 2.207031 12.746094 1.640625 L 10.398438 3.398438 L 10.398438 6.601562 Z M 8.238281 1.378906 L 10 2.699219 L 11.761719 1.378906 C 10.601562 1.140625 9.402344 1.140625 8.238281 1.378906 Z M 8.238281 1.378906 "/>
</g>
</svg>
