<!DOCTYPE svg PUBLIC "-//W3C//DTD SVG 1.1//EN" "http://www.w3.org/Graphics/SVG/1.1/DTD/svg11.dtd">
<!-- Uploaded to: SVG Repo, www.svgrepo.com, Transformed by: SVG Repo Mixer Tools -->
<svg height="89px" width="89px" version="1.1" id="Layer_1" xmlns="http://www.w3.org/2000/svg" xmlns:xlink="http://www.w3.org/1999/xlink" viewBox="0 0 485.656 485.656" xml:space="preserve" fill="#000000">
<g id="SVGRepo_bgCarrier" stroke-width="0"/>
<g id="SVGRepo_tracerCarrier" stroke-linecap="round" stroke-linejoin="round" stroke="#CCCCCC" stroke-width="4.85656"/>
<g id="SVGRepo_iconCarrier"> <path style="fill:#E5E8E8;" d="M466.352,165.424l-51.768-12.944l-58.264,29.128l-21.752,72.504l43.144,50.336l54.376,6.8 c23.552-30.92,37.568-69.472,37.568-111.248C469.656,188.184,468.488,176.632,466.352,165.424z"/> <path style="fill:#E07940;" d="M368.904,364.016c19.104-9.736,36.288-22.696,50.832-38.192l-40.032-5L368.904,364.016z"/> <g> <path style="fill:#E5E8E8;" d="M249.336,264.192l-42.92,49.976l14.536,58.112c20.144,7.592,41.936,11.752,64.696,11.752 c22.616,0,44.28-4.136,64.312-11.632l0.464-0.472l14.464-57.752l-42.912-49.984H249.336z"/> <path style="fill:#E5E8E8;" d="M293.656,124l56.84,42.632l56.768-28.384l20.584-54.888C404.6,55.072,373.08,33.856,337.04,23.352 l-43.384,28.936V124z"/> </g> <g> <path style="fill:#E07940;" d="M462.088,147.864c-5.216-17.616-12.992-34.136-22.912-49.128l-14.88,39.68L462.088,147.864z"/> <path style="fill:#E07940;" d="M151.576,325.824c14.544,15.488,31.728,28.448,50.832,38.192l-10.8-43.192L151.576,325.824z"/> <path style="fill:#E07940;" d="M315.536,18.464c-9.728-1.6-19.704-2.464-29.88-2.464s-20.152,0.864-29.88,2.464l29.88,19.928 L315.536,18.464z"/> <polygon style="fill:#E07940;" points="230.92,179.144 251.608,248.192 319.704,248.192 340.392,179.144 285.656,138.096 "/> </g> <path style="fill:#E5E8E8;" d="M236.736,254.112l-21.752-72.504L156.72,152.48l-51.768,12.944 c-2.128,11.208-3.296,22.76-3.296,34.576c0,41.776,14.016,80.32,37.56,111.24l54.376-6.8L236.736,254.112z"/> <path style="fill:#E07940;" d="M132.136,98.736c-9.92,14.992-17.696,31.512-22.912,49.128l37.792-9.448L132.136,98.736z"/> <path style="fill:#E5E8E8;" d="M220.816,166.64l56.84-42.64V52.288L234.264,23.36c-36.04,10.504-67.56,31.72-90.808,60.008 l20.584,54.888L220.816,166.64z"/> <path style="fill:#334C5B;" d="M285.656,0C192.464,0,113.968,64.072,91.872,150.472L16,226.344l11.312,11.312l59.568-59.568 c-0.784,7.2-1.224,14.504-1.224,21.912c0,4.128,0.168,8.208,0.416,12.272L0,298.344l11.312,11.312l77.048-77.048 c1.52,9.224,3.64,18.248,6.376,27L0,354.344l11.312,11.312l89.464-89.456c3.944,9.544,8.584,18.736,13.904,27.472L0,418.344 l11.312,11.312l112.44-112.44c4.656,6.408,9.664,12.544,15.024,18.352L0,474.344l11.312,11.312L150.088,346.88 c7.208,6.656,14.896,12.8,23.024,18.352L64,474.344l11.312,11.312l111.752-111.752c8.976,5.104,18.368,9.552,28.128,13.24 L128,474.344l11.312,11.312l92.952-92.952c11.288,3.136,22.968,5.312,34.96,6.416L192,474.344l11.312,11.312l85.744-85.744 c12.824-0.216,25.368-1.6,37.512-4.136L264,458.344l11.312,11.312l83.624-83.616c74.12-29.304,126.72-101.616,126.72-186.04 C485.656,89.72,395.936,0,285.656,0z M462.088,147.864l-37.792-9.448l14.88-39.68C449.096,113.728,456.872,130.248,462.088,147.864z M427.848,83.368l-20.584,54.888l-56.768,28.384L293.656,124V52.288l43.392-28.928C373.088,33.864,404.6,55.08,427.848,83.368z M340.392,179.144l-20.688,69.048h-68.096l-20.688-69.048l54.736-41.048L340.392,179.144z M285.656,16 c10.176,0,20.152,0.864,29.88,2.464l-29.88,19.928l-29.88-19.92C265.504,16.872,275.48,16,285.656,16z M234.264,23.36l43.392,28.928 v71.72l-56.84,42.632l-56.768-28.384l-20.584-54.888C166.712,55.08,198.224,33.864,234.264,23.36z M132.136,98.736l14.88,39.68 l-37.792,9.448C114.44,130.248,122.216,113.728,132.136,98.736z M139.216,311.248c-23.544-30.92-37.56-69.472-37.56-111.248 c0-11.824,1.168-23.368,3.304-34.576l51.768-12.944l58.264,29.128l21.752,72.504L193.6,304.448L139.216,311.248z M151.576,325.824 l40.032-5l10.8,43.192C183.304,354.272,166.12,341.312,151.576,325.824z M350.432,371.912l-0.464,0.464 C329.936,379.872,308.272,384,285.656,384c-22.76,0-44.56-4.184-64.696-11.776l-14.536-58.064l42.912-49.968h72.64l42.92,49.976 L350.432,371.912z M368.904,364.016l10.8-43.192l40.032,5C405.192,341.312,388.008,354.272,368.904,364.016z M377.72,304.448 l-43.144-50.336l21.752-72.504l58.264-29.128l51.768,12.944c2.128,11.208,3.296,22.76,3.296,34.576 c0,41.776-14.016,80.32-37.56,111.24L377.72,304.448z"/> </g>
</svg>