<?xml version="1.0" encoding="UTF-8"?>
<svg xmlns="http://www.w3.org/2000/svg" xmlns:xlink="http://www.w3.org/1999/xlink" width="20px" height="px" viewBox="0 0 20 20" version="1.1">
<g id="surface1">
<path style=" stroke:none;fill-rule:nonzero;fill:rgb(0%,0%,0%);fill-opacity:1;" d="M 17.367188 7.15625 C 17.21875 7.304688 17.019531 7.390625 16.808594 7.390625 C 16.597656 7.390625 16.394531 7.304688 16.246094 7.15625 L 15.964844 6.875 L 15.105469 7.738281 C 17.90625 10.550781 17.898438 15.105469 15.085938 17.910156 C 12.277344 20.714844 7.722656 20.714844 4.914062 17.910156 C 2.101562 15.105469 2.09375 10.550781 4.894531 7.738281 L 4.035156 6.875 L 3.753906 7.15625 C 3.441406 7.457031 2.945312 7.453125 2.636719 7.144531 C 2.332031 6.835938 2.328125 6.339844 2.632812 6.027344 L 4.035156 4.621094 C 4.347656 4.316406 4.847656 4.320312 5.152344 4.628906 C 5.460938 4.9375 5.464844 5.433594 5.160156 5.746094 L 4.878906 6.03125 L 5.796875 6.960938 C 6.910156 6.160156 8.230469 5.695312 9.597656 5.621094 L 9.597656 4.761719 C 8.367188 4.550781 7.503906 3.4375 7.605469 2.191406 C 7.710938 0.949219 8.75 -0.0078125 10 -0.0078125 C 11.246094 -0.0078125 12.285156 0.949219 12.390625 2.191406 C 12.496094 3.4375 11.628906 4.550781 10.398438 4.761719 L 10.398438 5.621094 C 11.765625 5.695312 13.085938 6.160156 14.199219 6.957031 L 15.125 6.03125 L 14.84375 5.746094 C 14.636719 5.546875 14.554688 5.25 14.625 4.972656 C 14.699219 4.695312 14.914062 4.480469 15.191406 4.40625 C 15.46875 4.332031 15.765625 4.414062 15.964844 4.617188 L 17.371094 6.027344 C 17.679688 6.339844 17.679688 6.84375 17.367188 7.15625 Z M 11.597656 2.398438 C 11.601562 1.566406 10.964844 0.871094 10.136719 0.800781 C 9.308594 0.726562 8.5625 1.304688 8.421875 2.125 C 8.28125 2.945312 8.792969 3.734375 9.597656 3.945312 L 9.597656 3.199219 L 9.199219 3.199219 L 9.199219 2 L 10.796875 2 L 10.796875 3.199219 L 10.398438 3.199219 L 10.398438 3.945312 C 11.105469 3.761719 11.597656 3.128906 11.597656 2.398438 Z M 10 6.800781 C 6.683594 6.800781 4 9.484375 4 12.800781 C 4 16.113281 6.683594 18.800781 10 18.800781 C 13.3125 18.800781 16 16.113281 16 12.800781 C 16 9.484375 13.3125 6.800781 10 6.800781 Z M 11.199219 12.554688 C 11.117188 13.15625 10.605469 13.601562 10 13.601562 C 9.390625 13.601562 8.878906 13.15625 8.796875 12.554688 C 8.796875 12.554688 8.796875 12.554688 8.796875 12.550781 C 8.800781 12.402344 8.835938 12.257812 8.902344 12.128906 L 10 7.601562 L 11.09375 12.125 C 11.164062 12.257812 11.199219 12.402344 11.199219 12.550781 C 11.199219 12.550781 11.199219 12.550781 11.199219 12.554688 Z M 11.199219 12.554688 "/>
</g>
</svg>
