<?xml version="1.0" encoding="utf-8"?><!-- Uploaded to: SVG Repo, www.svgrepo.com, Generator: SVG Repo Mixer Tools -->
<svg fill="#000000" width="800px" height="800px" viewBox="-5.99 0 50 50" xmlns="http://www.w3.org/2000/svg">
  <path id="StopWatch" d="M263.425,246.89a1.981,1.981,0,0,1-2.809,0l-.7-.707-2.151,2.158a18,18,0,1,1-25.523,0l-2.15-2.158-.7.707a1.99,1.99,0,0,1-2.809-2.819l3.511-3.523a1.99,1.99,0,0,1,2.809,2.819l-.705.708L234.5,246.4a17.938,17.938,0,0,1,9.5-3.346V240.9a6,6,0,1,1,2,0v2.151a17.938,17.938,0,0,1,9.5,3.346l2.315-2.323-.705-.708a1.99,1.99,0,1,1,2.809-2.819l3.511,3.523A2,2,0,0,1,263.425,246.89ZM249,235a4,4,0,1,0-5,3.859V237h-1v-3h4v3h-1v1.859A3.991,3.991,0,0,0,249,235Zm-4,11a15,15,0,1,0,15,15A15,15,0,0,0,245,246Zm3,14.385a3.027,3.027,0,0,1-6,0h0v0s0,0,0-.007a2.335,2.335,0,0,1,.259-1.059L245,248l2.741,11.316a2.335,2.335,0,0,1,.259,1.059s0,0,0,.007v0Z" transform="translate(-225.993 -229)"/>
</svg>