<?xml version="1.0" encoding="utf-8"?><!-- Uploaded to: SVG Repo, www.svgrepo.com, Generator: SVG Repo Mixer Tools -->
<svg fill="#000000" width="800px" height="800px" viewBox="0 -8.01 59.021 59.021" xmlns="http://www.w3.org/2000/svg">
  <path id="Whistle" d="M362.171,175.729s-6.865,3.926-12.9,7.372a14.151,14.151,0,0,0-2.087,1.576,7.864,7.864,0,0,0-3.785,8.334,1.6,1.6,0,0,1-.378-.184,16.718,16.718,0,0,1-32.253,7.461l-2.995.233c-1.659.019-3.125-.644-3.536-2.436l-.149-.649c-.411-1.792.442-3.072,2.02-4.174l3.124-1.956a1.606,1.606,0,0,1,.707-.039,16.709,16.709,0,0,1,9.631-12.168,1.106,1.106,0,0,1,.565-.385l1.917-.512h0l5.749-1.536h0c.6-.162,1.094.281,1.474.776.179.233.32.437.46.64l.261.338c.346.536.818.952,1.423.79l6.023-1.609c.6-.162.776-.731.819-1.389v-.2a3.844,3.844,0,0,1,0-.686l0-.28.023-.006c.081-.619.282-1.246.887-1.408l.137-.037h0l20.808-5.56a1.134,1.134,0,0,1,1.389.8l1.467,5.46C363.121,174.9,362.811,175.357,362.171,175.729Zm-52.509,20.7a1.706,1.706,0,1,0-1.207,2.075A1.708,1.708,0,0,0,309.662,196.425ZM359.283,171l-17.543,4.991a2.68,2.68,0,0,1-1.151,3.169,80.007,80.007,0,0,1-10.047,3.2c-.866-.276-1.675-1.439-2.607-1.535a3.5,3.5,0,0,0-1.523-.191c-1.556-.161-4.129.719-5.766,1.442a12.836,12.836,0,0,0-3.158,1.787,12.028,12.028,0,0,0-3.386,4.181l-.006-.015c-1.654,2.941-1.43,6.637-.494,10.162.053.2.125.387.186.581a12.8,12.8,0,0,0,3.267,5.5h-.006a13.152,13.152,0,0,0,9.285,3.722c.056,0,.11.008.166.008A13.5,13.5,0,0,0,340,194.5c0-1.826.531-9.209,2.74-10.694C347.056,180.9,360,173.2,360,173.2Z" transform="translate(-303.981 -167.994)"/>
</svg>