<?xml version="1.0" encoding="UTF-8"?>
<svg xmlns="http://www.w3.org/2000/svg" xmlns:xlink="http://www.w3.org/1999/xlink" width="20px" height="px" viewBox="0 0 20 20" version="1.1">
<g id="surface1">
<path style=" stroke:none;fill-rule:nonzero;fill:rgb(0%,0%,0%);fill-opacity:1;" d="M 19.71875 5.335938 C 19.71875 5.335938 17.390625 6.664062 15.347656 7.832031 C 15.09375 7.988281 14.859375 8.167969 14.640625 8.367188 C 13.652344 8.9375 13.136719 10.074219 13.355469 11.191406 C 13.3125 11.175781 13.269531 11.15625 13.230469 11.128906 C 13.472656 13.941406 11.609375 16.5 8.863281 17.136719 C 6.113281 17.773438 3.316406 16.289062 2.300781 13.65625 L 1.285156 13.738281 C 0.722656 13.742188 0.226562 13.519531 0.0859375 12.910156 L 0.0351562 12.691406 C -0.101562 12.082031 0.1875 11.648438 0.722656 11.277344 L 1.78125 10.613281 C 1.855469 10.589844 1.9375 10.585938 2.019531 10.601562 C 2.363281 8.773438 3.582031 7.234375 5.28125 6.476562 C 5.332031 6.414062 5.398438 6.367188 5.472656 6.347656 L 6.125 6.171875 L 8.070312 5.652344 C 8.273438 5.597656 8.441406 5.75 8.570312 5.914062 C 8.632812 5.996094 8.679688 6.0625 8.726562 6.132812 L 8.816406 6.246094 C 8.933594 6.429688 9.09375 6.570312 9.296875 6.515625 L 11.339844 5.96875 C 11.542969 5.914062 11.601562 5.722656 11.617188 5.5 L 11.617188 5.429688 C 11.609375 5.355469 11.609375 5.277344 11.617188 5.199219 L 11.617188 5.105469 L 11.625 5.101562 C 11.652344 4.890625 11.71875 4.679688 11.925781 4.625 L 11.972656 4.613281 L 19.023438 2.726562 C 19.226562 2.671875 19.4375 2.792969 19.492188 3 L 19.988281 4.847656 C 20.039062 5.054688 19.933594 5.210938 19.71875 5.335938 Z M 1.925781 12.351562 C 1.867188 12.121094 1.675781 11.953125 1.445312 11.921875 C 1.210938 11.890625 0.984375 12 0.867188 12.203125 C 0.746094 12.40625 0.765625 12.660156 0.90625 12.847656 C 1.050781 13.03125 1.289062 13.113281 1.515625 13.054688 C 1.824219 12.96875 2.003906 12.65625 1.925781 12.347656 Z M 18.738281 3.734375 L 12.796875 5.425781 C 12.933594 5.828125 12.773438 6.277344 12.40625 6.496094 C 11.296875 6.933594 10.15625 7.296875 9 7.582031 C 8.707031 7.488281 8.433594 7.09375 8.117188 7.0625 C 7.953125 7.003906 7.777344 6.980469 7.601562 6.996094 C 7.074219 6.941406 6.203125 7.242188 5.648438 7.484375 C 5.261719 7.636719 4.902344 7.839844 4.578125 8.089844 C 4.09375 8.472656 3.699219 8.957031 3.429688 9.507812 L 3.425781 9.503906 C 2.867188 10.5 2.941406 11.753906 3.261719 12.945312 C 3.277344 13.015625 3.300781 13.078125 3.324219 13.144531 C 3.527344 13.847656 3.910156 14.488281 4.429688 15.007812 C 5.269531 15.824219 6.402344 16.277344 7.574219 16.269531 C 7.59375 16.269531 7.613281 16.273438 7.628906 16.273438 C 10.15625 16.273438 12.207031 14.222656 12.207031 11.695312 C 12.207031 11.078125 12.386719 8.574219 13.132812 8.074219 C 14.597656 7.085938 18.984375 4.476562 18.984375 4.476562 Z M 18.738281 3.734375 "/>
</g>
</svg>
